<svg width="4023" height="821" viewBox="0 0 4023 821" fill="none" xmlns="http://www.w3.org/2000/svg">
<path d="M1001.49 267.757H1032.68L1034.33 310.724C1052.66 278.979 1083.31 261.189 1124.64 261.189C1173.63 261.189 1210.57 283.631 1226.17 328.786C1242.87 285.273 1276.25 261.189 1324.97 261.189C1392.02 261.189 1436.08 302.514 1435.53 387.351V546.898H1402.14V404.044C1402.14 311.545 1365.75 292.388 1319.49 292.388C1266.4 292.388 1235.2 333.712 1235.2 403.497V546.898H1201.82V404.044C1201.82 311.545 1165.42 292.388 1119.17 292.388C1066.07 292.388 1034.87 333.712 1034.87 403.497V546.898H1001.49V267.757Z" fill="#232323"/>
<path d="M1452.77 267.76H1487.26L1587.69 506.672L1688.68 267.76H1723.71L1587.15 591.235C1567.17 638.579 1547.46 664.851 1501.76 664.851C1489.99 664.851 1473.85 660.472 1452.23 651.441L1464.54 622.98C1483.97 630.095 1496.84 634.2 1504.77 634.2C1525.84 634.2 1539.25 621.885 1548.29 600.813L1571.27 546.627H1570.73L1452.77 267.76Z" fill="#232323"/>
<path d="M1711.12 156.102H1816.49L1878.34 387.624L1936.9 156.102H2039.53L2099.74 381.603L2159.95 156.102H2265.31L2153.1 546.624H2046.1L1988.08 315.65L1930.06 546.624H1823.05L1711.12 156.102Z" fill="#232323"/>
<path d="M2272.43 185.111C2272.43 155.008 2298.15 129.283 2328.26 129.283C2358.36 129.283 2384.08 155.008 2384.08 185.111C2384.08 215.215 2358.36 240.939 2328.26 240.939C2298.15 240.939 2272.43 215.215 2272.43 185.111ZM2277.9 267.759H2378.34V546.624H2277.9V267.759Z" fill="#232323"/>
<path d="M2439.64 458.504V351.5H2397.77V267.759H2439.64V180.733H2540.08V267.759H2597.55V351.5H2540.08V431.411C2540.08 452.483 2545.55 460.419 2559.51 460.419C2565.53 460.419 2576.21 456.041 2581.13 451.936L2615.07 524.457C2597.83 539.509 2567.72 553.466 2541.45 553.466C2472.48 553.466 2439.64 519.805 2439.64 458.504Z" fill="#232323"/>
<path d="M2607.13 156.102H2642.71L2746.97 491.891L2848.5 156.102H2884.08L2983.42 491.891L3089.88 156.102H3125.46L3002.03 546.624H2962.9L2865.74 215.761L2765.85 546.624H2726.72L2607.13 156.102Z" fill="#232323"/>
<path d="M3112.05 468.082C3112.05 413.349 3150.64 381.056 3216.32 381.056H3298.42C3293.5 321.397 3272.15 291.841 3222.07 291.841C3186.49 291.841 3160.76 305.798 3145.16 334.259L3115.06 320.85C3139.69 280.621 3175.27 261.189 3222.07 261.189C3296.78 261.189 3333.18 305.798 3333.18 397.203V546.625H3305.26L3304.17 514.879C3284.74 539.509 3254.63 553.466 3216.59 553.466C3150.36 553.466 3112.05 521.447 3112.05 468.082ZM3300.61 427.306L3300.06 411.707H3220.97C3167.33 411.707 3145.71 432.232 3145.71 468.082C3145.71 502.017 3170.89 522.816 3214.4 522.816C3268.04 522.542 3300.61 484.229 3300.61 427.306Z" fill="#232323"/>
<path d="M3386.82 156.102H3420.21L3419.11 546.624H3385.72L3386.82 156.102Z" fill="#232323"/>
<path d="M3482.88 156.102H3516.27L3515.17 546.624H3481.78L3482.88 156.102Z" fill="#232323"/>
<path d="M3560.88 407.057C3560.88 321.674 3616.7 260.919 3695.25 260.919C3774.61 260.919 3819.22 323.316 3819.22 410.889H3594.26C3595.91 477.39 3638.32 522.545 3697.99 522.545C3740.95 522.545 3771.06 499.01 3788.3 465.622L3816.21 482.863C3795.14 524.187 3753.81 553.195 3697.99 553.195C3617.8 553.469 3560.88 492.989 3560.88 407.057ZM3596.73 380.238H3783.65C3775.71 327.147 3746.15 291.57 3695.52 291.57C3644.62 291.57 3606.3 327.421 3596.73 380.238Z" fill="#232323"/>
<path d="M3882.99 475.197V298.409H3833.45V267.759H3882.99V180.733H3916.38V267.759H4005.05V298.409H3916.38V475.197C3916.38 505.301 3934.17 522.542 3964.82 522.542C3973.85 522.542 3979.87 521.447 3996.56 510.227L4010.52 539.235C3990.54 551.003 3978.77 553.192 3964.82 553.192C3913.64 553.466 3882.99 524.731 3882.99 475.197Z" fill="#232323"/>
<path d="M761.201 577.552L377.237 799.222C327.702 827.683 263.936 810.716 235.474 761.182L13.798 377.228C-14.664 327.694 2.30372 263.929 51.8387 235.468L435.803 13.7977C485.338 -14.6637 549.104 2.30367 577.566 51.8374L799.242 435.792C827.704 485.052 810.736 548.817 761.201 577.552Z" fill="#00E2ED"/>
<path d="M191.961 291.57C190.319 291.57 188.404 291.296 186.762 290.749C176.362 287.738 170.341 277.065 173.352 266.94C179.372 245.321 194.424 235.742 209.203 226.438L454.142 70.7213C494.919 44.7229 549.107 56.7643 575.106 97.5406L642.703 200.166C648.724 209.197 645.987 221.238 637.229 226.985C628.198 232.732 616.154 230.269 610.407 221.512L542.812 118.613C528.307 95.6249 497.93 89.0569 475.215 103.288L230.276 259.004C217.687 266.94 213.034 270.224 211.119 277.339C208.108 286.096 200.445 291.57 191.961 291.57Z" fill="#232323"/>
<mask id="mask0_17_107938" style="mask-type:luminance" maskUnits="userSpaceOnUse" x="122" y="141" width="614" height="546">
<path d="M123.269 254.077L187.308 612.854C196.066 661.567 242.59 693.86 291.03 685.102L661.584 618.875C710.298 610.118 742.591 563.594 733.834 515.155C728.907 486.968 701.814 468.085 673.625 473.011L560.325 493.262C527.21 499.283 495.19 476.842 489.443 443.728C483.422 410.615 505.864 378.596 538.978 372.849L652.279 352.597C680.467 347.671 699.351 320.578 694.425 292.391L693.604 287.191C684.846 238.478 638.321 206.185 589.881 214.943L219.328 281.17C219.328 281.17 377.511 146.252 406.246 141.052L178.004 184.018C177.456 184.018 116.701 193.323 123.269 254.077Z" fill="white"/>
</mask>
<g mask="url(#mask0_17_107938)">
<path d="M307.453 427.309L343.031 264.75L235.205 283.907C227.541 287.739 219.605 290.475 211.395 291.844C159.397 301.148 113.42 265.571 102.199 215.764C99.1888 202.08 99.7362 188.397 103.568 175.261L26.1179 187.302L35.6966 444.823L247.246 699.881L277.896 560.858C284.464 561.679 291.58 561.679 298.422 560.311C335.915 553.743 360.819 517.892 354.251 480.4C349.872 454.675 330.989 434.698 307.453 427.309Z" fill="#232323"/>
</g>
<mask id="mask1_17_107938" style="mask-type:luminance" maskUnits="userSpaceOnUse" x="122" y="141" width="614" height="546">
<path d="M123.269 254.077L187.308 612.854C196.066 661.567 242.59 693.86 291.03 685.102L661.584 618.875C710.298 610.118 742.591 563.594 733.834 515.155C728.907 486.968 701.814 468.085 673.625 473.011L560.325 493.262C527.21 499.283 495.19 476.842 489.443 443.728C483.422 410.615 505.864 378.596 538.978 372.849L652.279 352.597C680.467 347.671 699.351 320.578 694.425 292.391L693.604 287.191C684.846 238.478 638.321 206.185 589.881 214.943L219.328 281.17C219.328 281.17 377.511 146.252 406.246 141.052L178.004 184.018C177.456 184.018 116.701 193.323 123.269 254.077Z" fill="white"/>
</mask>
<g mask="url(#mask1_17_107938)">
<path d="M281.728 582.751C351.408 582.751 407.891 526.269 407.891 456.591C407.891 386.915 351.408 330.43 281.728 330.43C212.05 330.43 155.565 386.915 155.565 456.591C155.565 526.269 212.05 582.751 281.728 582.751Z" fill="#232323"/>
</g>
<path d="M280.083 708.09C257.916 708.09 236.57 701.249 217.96 688.386C194.15 671.693 178.277 646.789 173.077 618.328L109.312 261.193C108.217 257.635 107.122 254.077 106.575 250.52C103.291 231.637 107.396 212.48 118.343 196.881C129.29 181.282 145.71 170.609 164.594 167.325L355.617 133.664C366.016 131.748 376.142 138.864 378.058 149.263C379.974 159.662 372.858 169.788 362.459 171.704L171.435 205.365C162.678 207.007 155.289 211.659 150.089 219.048C144.889 226.437 142.973 235.194 144.615 243.952C144.889 245.594 145.163 247.236 145.71 248.604C145.984 249.151 146.257 249.972 146.531 250.52C148.994 256.54 152.826 261.466 158.299 265.298C165.415 270.497 174.172 272.413 183.203 270.771L590.976 197.976C650.089 187.303 706.74 226.984 717.14 286.096L717.96 291.57C721.245 310.179 717.139 329.336 706.193 344.935C695.246 360.534 678.825 370.933 660.215 374.491L541.988 395.563C519.274 399.668 504.222 421.288 508.053 444.002C509.969 454.949 516.263 464.527 525.294 470.821C534.326 477.116 545.546 479.579 556.493 477.663L674.72 456.591C693.33 453.307 712.487 457.412 728.086 468.358C743.686 479.305 754.085 495.725 757.643 514.334C768.043 573.446 728.634 630.095 669.52 640.768L298.966 706.996C292.946 707.543 286.377 708.09 280.083 708.09ZM156.931 306.895L211.392 611.76C218.234 649.799 254.632 675.25 292.672 668.409L663.226 602.181C701.266 595.34 726.718 558.942 719.876 520.902C718.234 512.419 713.582 504.756 706.466 499.83C699.351 494.904 690.593 492.988 682.109 494.357L563.882 515.429C542.809 518.987 521.463 514.608 503.674 502.019C485.885 489.704 474.117 471.369 470.286 450.023C466.455 428.95 471.381 407.604 483.696 389.816C496.011 372.028 514.347 360.26 535.694 356.429L653.921 335.356C662.405 333.714 670.068 329.062 674.994 321.947C679.92 314.831 681.836 306.074 680.467 297.59L679.646 292.117C672.804 254.077 636.406 228.626 598.365 235.468L190.593 308.263C178.551 310.726 167.33 309.905 156.931 306.895Z" fill="#232323"/>
<path d="M307.724 478.21L273.788 484.231L261.472 414.72L241.768 418.277L254.083 487.789L224.8 492.988C220.695 493.809 216.864 491.073 216.043 486.968L205.096 424.845L185.391 428.403L197.98 499.009C199.896 509.135 209.474 515.976 219.6 514.061L330.713 494.357L314.839 405.415L295.135 408.973L307.724 478.21Z" fill="white"/>
<path d="M364.082 467.346L344.144 470.904L347.699 490.84L367.637 487.283L364.082 467.346Z" fill="#00E2ED"/>
<path d="M554.851 453.854C566.187 453.854 575.377 444.664 575.377 433.329C575.377 421.994 566.187 412.804 554.851 412.804C543.516 412.804 534.326 421.994 534.326 433.329C534.326 444.664 543.516 453.854 554.851 453.854Z" fill="#232323"/>
</svg>
