<svg width="50" height="50" viewBox="0 0 50 50" fill="none" xmlns="http://www.w3.org/2000/svg">
<rect width="50" height="50" rx="8" fill="#021D30"/>
<path d="M33.7359 21.2587L38.96 24.503L33.7359 27.7529C34.1156 26.7421 34.339 25.6475 34.339 24.503C34.339 23.3582 34.1156 22.2695 33.7359 21.2587V21.2587ZM16.4571 21.2587C16.0774 22.2695 15.854 23.3637 15.854 24.503C15.854 25.6475 16.0718 26.7365 16.4571 27.7474L11.233 24.503L16.4571 21.2587ZM25.0967 17.1938C29.1424 17.1938 32.3967 20.4545 32.3967 24.503C32.3967 28.5512 29.1372 31.8067 25.0967 31.8067C21.0502 31.8067 17.7907 28.546 17.7907 24.503C17.7907 20.4605 21.0557 17.1938 25.0967 17.1938V17.1938ZM25.0967 13.6423L24.1924 14.2008L20.6145 16.4231C20.358 16.5683 20.1127 16.7191 19.8726 16.8867L7.62207 24.503L19.8726 32.1138C20.1179 32.2814 20.3692 32.4377 20.6313 32.5829L25.1019 35.3582L29.4999 32.622C29.511 32.6165 29.5222 32.6053 29.5334 32.5997C29.8066 32.4489 30.0747 32.2814 30.3316 32.1027L42.5765 24.503L30.326 16.8922C30.0803 16.7247 29.8294 16.5627 29.5669 16.4175L25.0967 13.6423Z" fill="#4AB6A1"/>
<path d="M44.3733 26.2285C43.8097 26.2341 43.1958 26.3849 42.5762 26.7479L26.9043 36.4805L27.0611 36.5754C27.5015 36.8323 28.0819 37.011 28.7241 36.9995C29.2878 36.9943 29.9017 36.8435 30.5208 36.4805L33.6016 34.5649L46.1872 26.7423L46.0256 26.6418C45.5844 26.3961 45.0152 26.2229 44.3733 26.2285Z" fill="#4AB6A1"/>
<path d="M21.4686 12.0006C20.905 12.0062 20.2911 12.157 19.6716 12.52L16.5908 14.4351L4 22.2582C4.81457 22.8055 6.1932 23.0847 7.61611 22.2582L23.2885 12.5256L23.1321 12.4306C22.6909 12.1681 22.1161 11.9894 21.4686 12.0006Z" fill="#4AB6A1"/>
</svg>
