<svg width="22" height="12" viewBox="0 0 22 12" fill="none" xmlns="http://www.w3.org/2000/svg">
<path fill-rule="evenodd" clip-rule="evenodd" d="M0 6C0 5.44772 0.447715 5 1 5H21C21.5523 5 22 5.44772 22 6C22 6.55228 21.5523 7 21 7H1C0.447715 7 0 6.55228 0 6Z" fill="#373737"/>
<path fill-rule="evenodd" clip-rule="evenodd" d="M0 1C0 0.447715 0.447715 0 1 0H21C21.5523 0 22 0.447715 22 1C22 1.55228 21.5523 2 21 2H1C0.447715 2 0 1.55228 0 1Z" fill="#373737"/>
<path fill-rule="evenodd" clip-rule="evenodd" d="M0 11C0 10.4477 0.447715 10 1 10H21C21.5523 10 22 10.4477 22 11C22 11.5523 21.5523 12 21 12H1C0.447715 12 0 11.5523 0 11Z" fill="#373737"/>
</svg>
