<svg width="24" height="24" viewBox="0 0 24 24" fill="none" xmlns="http://www.w3.org/2000/svg">
<path d="M16.3263 10.9C14.9071 10.9 14.7107 12.3143 14.7107 12.3143H17.7259C17.7259 12.3143 17.7455 10.9 16.3263 10.9Z" fill="#373737"/>
<path d="M9.48571 12.3143H6.81429V14.7696H9.35313C9.73616 14.7598 10.4531 14.6518 10.4531 13.5763C10.4531 12.2996 9.48571 12.3143 9.48571 12.3143Z" fill="#373737"/>
<path d="M12 1C5.92545 1 1 5.92545 1 12C1 18.0746 5.92545 23 12 23C18.0746 23 23 18.0746 23 12C23 5.92545 18.0746 1 12 1ZM14.3179 7.75714H18.104V8.88661H14.3179V7.75714ZM12.4027 13.6893C12.4027 16.4884 9.48571 16.4 9.48571 16.4H4.7125V7.21696H9.48571C10.9393 7.21696 12.0835 8.01741 12.0835 9.6625C12.0835 11.3076 10.6839 11.4107 10.6839 11.4107C12.5304 11.4107 12.4027 13.6893 12.4027 13.6893ZM19.4839 13.5371H14.7254C14.7254 15.2411 16.3411 15.133 16.3411 15.133C17.8683 15.133 17.8143 14.146 17.8143 14.146H19.4299C19.4299 16.7683 16.2871 16.5866 16.2871 16.5866C12.5205 16.5866 12.7612 13.0754 12.7612 13.0754C12.7612 13.0754 12.7562 9.54955 16.2871 9.54955C20.0045 9.55446 19.4839 13.5371 19.4839 13.5371Z" fill="#373737"/>
<path d="M10.1339 9.80491C10.1339 8.85223 9.48571 8.85223 9.48571 8.85223H6.81429V10.9H9.31875C9.75089 10.9 10.1339 10.7576 10.1339 9.80491Z" fill="#373737"/>
</svg>
